PathFileType  4	(X/Y/Z) C:\Users\antoi\Documents\MyRepositories\mobilecap\ResultsAnalysis
DataRate	CameraRate	NumFrames	NumMarkers	Units	OrigDataRate	OrigDataStartFrame	OrigNumFrames
100.0	100.0	5	51	mm	100.0	35	136
Frame#	Time	r_knee			r_shank_antsup			r_ankle			r_calc			r_5meta			r_toe			L_knee			L_shank_antsup			L_ankle			L_calc			L_5meta			L_toe			r_sh2			r_sh3			r_sh4			L_sh2			L_sh3			r_thigh1			r_thigh2			r_thigh3			r_thigh4			r_thigh5			L_thigh1			L_thigh2			L_thigh3			L_thigh4			r.ASIS			r.PSIS			L.ASIS			L.PSIS			C7			R_Shoulder			L_Shoulder			R_Sternum			L_Sternum			R_humerus			R_elbow_med			R_elbow_lat			R_forearm			R_wrist_radius			R_wrist_ulna			L_humerus			L_elbow_med			L_elbow_lat			L_forearm			L_wrist_radius			L_wrist_ulna			R_HJC			L_HJC			R_HJC_reg			L_HJC_reg			
		X1	Y1	Z1	X2	Y2	Z2	X3	Y3	Z3	X4	Y4	Z4	X5	Y5	Z5	X6	Y6	Z6	X7	Y7	Z7	X8	Y8	Z8	X9	Y9	Z9	X10	Y10	Z10	X11	Y11	Z11	X12	Y12	Z12	X13	Y13	Z13	X14	Y14	Z14	X15	Y15	Z15	X16	Y16	Z16	X17	Y17	Z17	X18	Y18	Z18	X19	Y19	Z19	X20	Y20	Z20	X21	Y21	Z21	X22	Y22	Z22	X23	Y23	Z23	X24	Y24	Z24	X25	Y25	Z25	X26	Y26	Z26	X27	Y27	Z27	X28	Y28	Z28	X29	Y29	Z29	X30	Y30	Z30	X31	Y31	Z31	X32	Y32	Z32	X33	Y33	Z33	X34	Y34	Z34	X35	Y35	Z35	X36	Y36	Z36	X37	Y37	Z37	X38	Y38	Z38	X39	Y39	Z39	X40	Y40	Z40	X41	Y41	Z41	X42	Y42	Z42	X43	Y43	Z43	X44	Y44	Z44	X45	Y45	Z45	X46	Y46	Z46	X47	Y47	Z47	X48	Y48	Z48	X49	Y49	Z49	X50	Y50	Z50	X51	Y51	Z51	

35	0.34000000	204.42696	538.05050	-73.87053	224.97286	457.38366	-68.45604	161.95267	98.18987	-115.24192	102.57231	56.32298	-157.92364	310.09041	35.65438	-91.83540	340.99820	62.98563	-152.55420	468.87247	581.90462	-346.92165	452.97245	466.47163	-356.93552	255.61500	203.13620	-320.57593	176.21482	187.61949	-274.04578	398.08830	93.70672	-303.64981	362.69643	75.83457	-365.17470	218.77272	344.31661	-70.04175	150.45046	461.05559	-47.89353	135.43044	346.58630	-59.73156	377.22280	515.18202	-365.27153	321.56255	408.26707	-358.78130	298.25748	854.42005	-24.18369	304.21580	746.64549	-46.31499	245.91058	715.93838	-23.65778	182.15344	845.48115	-24.15700	193.36138	729.59512	-37.14901	393.51280	898.22141	-365.98410	470.31207	781.12642	-367.38814	296.87609	829.59401	-375.87353	380.24529	717.28931	-378.45697	324.46720	1055.31321	-60.03845	134.87252	1092.60469	-158.06544	345.88066	1043.98477	-319.91042	142.66526	1082.73470	-262.21613	144.61912	1597.21267	-203.61618	214.87191	1545.29011	-28.61966	216.82031	1564.42048	-367.94516	295.54977	1523.61711	-172.92009	297.09218	1522.98200	-226.44638	243.84677	1282.24537	73.42941	201.25620	1178.82659	20.75258	235.98995	1194.74893	95.26344	339.40964	1070.50316	95.60452	403.17439	976.43925	76.45188	369.20487	966.45763	103.65473	194.53134	1303.55049	-455.56470	127.50419	1221.78174	-399.92029	162.59576	1220.64141	-461.34769	210.21544	1052.87478	-464.85769	235.38235	956.51456	-445.13633	202.46177	951.83119	-465.23423	239.13137	976.61289	-71.93757	261.26846	965.23853	-300.96348	251.31971	984.81002	-95.99720	264.11441	968.60372	-267.01239	
36	0.35000000	210.82464	538.19155	-74.00899	230.31881	457.16456	-68.52851	162.50939	98.54850	-115.30301	102.65613	56.64664	-157.97086	310.11712	35.58469	-91.76924	341.17689	62.59481	-152.61868	483.35381	582.33996	-345.42245	473.04347	465.50406	-355.57498	291.55993	191.11794	-320.12658	212.94480	170.79099	-273.93925	440.26161	90.44936	-302.63780	406.20788	70.58800	-364.38172	222.55251	344.20228	-70.06213	155.79489	461.85455	-48.27523	139.14832	347.62991	-60.01846	394.82508	509.94997	-364.91241	345.54944	400.04691	-358.43204	307.14683	853.74812	-23.69232	312.45219	745.93979	-45.64082	253.64497	715.68262	-23.55021	190.50285	846.12407	-24.27107	201.05388	729.94858	-37.46660	405.57771	898.28616	-365.85514	482.90147	781.51694	-366.59138	309.19177	829.31777	-375.15168	393.01680	717.21908	-377.27061	335.13471	1054.61272	-59.45452	146.30751	1092.60309	-158.49184	357.60889	1043.81493	-319.27046	154.53688	1082.68867	-262.63987	156.94736	1597.01345	-203.28312	226.97628	1545.16103	-28.23441	229.57647	1563.84912	-367.61580	307.66646	1523.23605	-172.30235	309.39375	1522.48017	-225.80316	258.92079	1283.00712	74.36332	217.71869	1178.79714	22.14288	252.59264	1195.37427	96.46352	358.36949	1073.27983	96.02331	424.38828	980.73219	76.26440	390.41032	969.99183	103.70385	203.11731	1303.30174	-455.17167	134.91162	1222.77519	-399.43631	170.02841	1220.90751	-460.79233	214.82375	1052.18819	-463.60100	238.32373	955.39529	-443.48701	205.18754	951.55420	-464.11316	249.71753	976.15673	-71.99602	272.96762	965.13147	-300.92893	261.89156	984.70474	-95.75368	275.39858	968.43036	-266.71368	
37	0.36000000	217.30078	538.24833	-74.09638	235.76498	456.88397	-68.56229	163.08049	98.94012	-115.36615	102.71307	56.98761	-158.02545	310.15223	35.50020	-91.71535	341.35115	62.18522	-152.68313	497.09143	582.14547	-343.94521	492.58994	464.08485	-354.44544	328.29716	179.39062	-319.85523	250.68762	154.46806	-273.98057	482.53899	87.54301	-301.54706	449.92804	65.79235	-363.50426	226.40725	344.04305	-70.05668	161.22785	462.58778	-48.58133	142.96375	348.63256	-60.25318	412.16502	504.05404	-364.62992	369.66284	391.49034	-358.11068	316.13877	852.98583	-23.20220	320.80083	745.13620	-45.01349	261.52786	715.33452	-23.43291	199.15248	846.62264	-24.43251	208.87974	730.23372	-37.66873	417.27486	897.86784	-365.72942	494.90591	781.30143	-365.77261	321.06356	828.71474	-374.54217	405.17815	716.73212	-376.19076	345.99205	1053.81462	-59.00193	157.86407	1092.52539	-158.83479	369.28268	1043.48080	-318.76822	166.45058	1082.51451	-262.97953	169.30415	1596.67290	-203.02299	239.04575	1544.91146	-27.90721	242.36398	1563.17624	-367.33943	319.84174	1522.74827	-171.72860	321.75788	1521.89137	-225.21113	273.85596	1283.67164	75.18830	234.09238	1178.72154	23.33866	269.02158	1195.91868	97.51124	377.04411	1076.00191	96.35791	445.28960	985.00474	76.03422	411.32403	973.50044	103.63486	211.87102	1303.00209	-454.79524	142.53117	1223.69683	-398.93105	177.63607	1221.11948	-460.25260	219.67391	1051.53904	-462.39437	241.63357	954.38571	-441.93757	208.23325	951.38312	-463.08074	260.49236	975.61652	-72.06255	284.61981	964.87817	-300.91744	272.58829	984.54018	-95.55701	286.67732	968.11260	-266.45787	
38	0.37000000	223.85801	538.21823	-74.15233	241.30654	456.54294	-68.57915	163.67819	99.36680	-115.45235	102.74084	57.34191	-158.08755	310.19431	35.40357	-91.67803	341.50688	61.75936	-152.75454	510.02370	581.33558	-342.49999	511.56388	462.41796	-353.61277	365.80968	168.13402	-319.76135	289.37676	138.93665	-274.15843	524.88353	85.04142	-300.39906	493.76838	61.46079	-362.54743	230.33304	343.83282	-70.05233	166.74607	463.25293	-48.82849	146.87576	349.59398	-60.44472	429.11312	497.62540	-364.23549	393.74295	382.75450	-357.73287	325.26939	852.11183	-22.73222	329.27461	744.23941	-44.49751	269.58538	714.89031	-23.34020	208.13368	846.94653	-24.62533	216.86619	730.43226	-37.75255	428.67657	897.00063	-365.58828	506.38119	780.49716	-364.92128	332.54134	827.82365	-374.11671	416.77732	715.85114	-375.21582	357.08703	1052.92126	-58.67634	169.54133	1092.33563	-159.09931	381.01350	1043.00671	-318.39577	178.39974	1082.19647	-263.22409	181.69208	1596.19055	-202.83319	251.08595	1544.54445	-27.64884	255.15531	1562.41231	-367.11690	332.09217	1522.15196	-171.21955	334.15577	1521.22290	-224.69762	288.66243	1284.23046	75.89820	250.34649	1178.59454	24.34514	285.26449	1196.37342	98.40687	395.48080	1078.66245	96.60137	465.85754	989.22699	75.75954	431.99170	976.97163	103.46487	220.82828	1302.64687	-454.42701	150.40500	1224.54062	-398.38596	185.45573	1221.26772	-459.71291	224.80345	1050.93840	-461.25230	245.31233	953.47700	-440.48185	211.66588	951.25199	-462.08539	271.50710	974.97443	-72.13888	296.30133	964.48860	-300.93290	283.49862	984.29398	-95.40628	298.03217	967.65836	-266.24716	
39	0.38000000	230.51046	538.10609	-74.19819	246.94183	456.14425	-68.60300	164.31540	99.83196	-115.57709	102.76352	57.69014	-158.16345	310.23839	35.30582	-91.65698	341.63428	61.32899	-152.83319	522.07441	579.92990	-341.11487	529.89086	460.70620	-353.07940	404.02440	157.53137	-319.81056	328.89684	124.47957	-274.40240	567.22657	82.99432	-299.24416	537.60769	57.59856	-361.52545	234.33811	343.57742	-70.07380	172.35440	463.85197	-49.03619	150.88721	350.51838	-60.60321	445.51461	490.78891	-363.56582	417.60803	373.98523	-357.23680	334.57561	851.11282	-22.30947	337.89194	743.25325	-44.14861	277.84865	714.34663	-23.30486	217.44314	847.08874	-24.81036	225.05442	730.52403	-37.74463	439.86207	895.70408	-365.41883	517.38837	779.10558	-364.04117	343.67273	826.68623	-373.91601	427.85081	714.58242	-374.31775	368.43733	1051.93329	-58.46753	181.33651	1092.00246	-159.29840	392.87473	1042.40163	-318.14520	190.38409	1081.72947	-263.37660	194.11425	1595.56482	-202.70998	263.10977	1544.06108	-27.46888	267.93274	1561.56170	-366.95071	344.42342	1521.44356	-170.79267	346.56154	1520.47475	-224.28657	303.34903	1284.66867	76.48934	266.46258	1178.40218	25.16820	301.31321	1196.72553	99.15446	413.70723	1081.24145	96.75235	486.07689	993.35919	75.43459	452.43689	980.38864	103.21867	230.00434	1302.22737	-454.06688	158.57075	1225.29115	-397.78796	193.51282	1221.34124	-459.16360	230.25512	1050.38359	-460.18939	249.36894	952.64853	-439.12001	215.54861	951.09673	-461.08675	282.78226	974.21644	-72.22827	308.06400	963.96606	-300.97835	294.67495	983.92758	-95.30526	309.52154	967.06986	-266.09285	
